<?xml version="1.0" encoding="utf-8"?>
<!-- Generator: Adobe Illustrator 18.0.0, SVG Export Plug-In . SVG Version: 6.00 Build 0)  -->
<!DOCTYPE svg PUBLIC "-//W3C//DTD SVG 1.1//EN" "http://www.w3.org/Graphics/SVG/1.1/DTD/svg11.dtd">
<svg version="1.1" id="Layer_1" xmlns="http://www.w3.org/2000/svg" xmlns:xlink="http://www.w3.org/1999/xlink" x="0px" y="0px"
	 viewBox="0 0 64 64" enable-background="new 0 0 64 64" xml:space="preserve">
<g id="CLOSE_1_" enable-background="new    ">
	<g id="CLOSE">
		<g>
			<path fill="#FFFFFF" d="M36.2,32l11.9-11.9c0.5-0.5,0.9-1.3,0.9-2.1c0-1.7-1.3-3-3-3c-0.8,0-1.6,0.3-2.1,0.9L32,27.8L20.1,15.9
				C19.6,15.3,18.8,15,18,15c-1.7,0-3,1.3-3,3c0,0.8,0.3,1.6,0.9,2.1L27.8,32L15.9,43.9C15.3,44.4,15,45.2,15,46c0,1.7,1.3,3,3,3
				c0.8,0,1.6-0.3,2.1-0.9L32,36.2l11.9,11.9c0.5,0.5,1.3,0.9,2.1,0.9c1.7,0,3-1.3,3-3c0-0.8-0.3-1.6-0.9-2.1L36.2,32z"/>
		</g>
	</g>
</g>
</svg>
